<svg width="150" height="172" viewBox="0 0 75 86" fill="none" xmlns="http://www.w3.org/2000/svg">
<path d="M3 23L37.6 3L72.2 23V62.9L37.6 82.9L3 62.9V23Z" stroke="black" stroke-width="5" stroke-miterlimit="10" stroke-linejoin="round"/>
<path d="M14.2875 64V44.292H20.7305C22.8692 44.292 24.4754 44.7342 25.5492 45.6185C26.6321 46.5029 27.1735 47.8113 27.1735 49.5439C27.1735 50.4643 26.9118 51.281 26.3884 51.9938C25.8651 52.6977 25.1522 53.2436 24.2498 53.6317C25.3146 53.9294 26.1538 54.4979 26.7674 55.3372C27.3901 56.1673 27.7014 57.16 27.7014 58.315C27.7014 60.0837 27.1284 61.4733 25.9824 62.484C24.8363 63.4947 23.2166 64 21.1231 64H14.2875ZM16.8864 54.7822V61.8749H21.1772C22.3864 61.8749 23.3384 61.5636 24.0332 60.9409C24.7371 60.3093 25.089 59.443 25.089 58.3421C25.089 55.9688 23.7986 54.7822 21.2178 54.7822H16.8864ZM16.8864 52.6977H20.8117C21.9487 52.6977 22.8556 52.4134 23.5324 51.8449C24.2182 51.2764 24.5611 50.5049 24.5611 49.5303C24.5611 48.4475 24.2453 47.6624 23.6136 47.1751C22.982 46.6788 22.0209 46.4307 20.7305 46.4307H16.8864V52.6977ZM46.1099 61.4147C45.4422 62.3712 44.5082 63.0886 43.3081 63.5669C42.1169 64.0361 40.7273 64.2707 39.1391 64.2707C37.5328 64.2707 36.1071 63.8962 34.8618 63.1473C33.6165 62.3893 32.651 61.3154 31.9651 59.9258C31.2884 58.5361 30.9409 56.9253 30.9229 55.0935V53.3745C30.9229 50.4057 31.6132 48.1046 32.9939 46.4713C34.3835 44.838 36.3327 44.0213 38.8413 44.0213C40.8987 44.0213 42.5546 44.5492 43.8089 45.605C45.0632 46.6518 45.8302 48.1407 46.1099 50.0718H43.5111C43.0238 47.4639 41.4717 46.16 38.8548 46.16C37.1132 46.16 35.7912 46.7736 34.8889 48.0008C33.9955 49.219 33.5443 50.9877 33.5353 53.3068V54.9175C33.5353 57.1284 34.0406 58.888 35.0513 60.1965C36.062 61.4959 37.4291 62.1456 39.1526 62.1456C40.1272 62.1456 40.9799 62.0373 41.7108 61.8208C42.4418 61.6042 43.0464 61.2387 43.5246 60.7244V56.2982H38.9631V54.1866H46.1099V61.4147ZM56.2617 55.2153C54.0328 54.5746 52.4086 53.7896 51.3889 52.8601C50.3782 51.9216 49.8729 50.7666 49.8729 49.395C49.8729 47.8429 50.491 46.5615 51.7273 45.5509C52.9725 44.5312 54.5878 44.0213 56.573 44.0213C57.9266 44.0213 59.1313 44.283 60.1871 44.8064C61.2519 45.3298 62.073 46.0517 62.6506 46.9721C63.2371 47.8925 63.5304 48.8987 63.5304 49.9906H60.918C60.918 48.7994 60.539 47.8655 59.781 47.1887C59.023 46.5029 57.9537 46.16 56.573 46.16C55.2917 46.16 54.29 46.4442 53.5681 47.0127C52.8552 47.5722 52.4988 48.3527 52.4988 49.3544C52.4988 50.1575 52.8372 50.8388 53.514 51.3983C54.1998 51.9487 55.3593 52.4541 56.9926 52.9143C58.635 53.3745 59.9164 53.8843 60.8368 54.4438C61.7662 54.9943 62.452 55.6395 62.8942 56.3794C63.3454 57.1194 63.571 57.9902 63.571 58.9918C63.571 60.589 62.9484 61.8704 61.7031 62.8359C60.4578 63.7925 58.7929 64.2707 56.7084 64.2707C55.3548 64.2707 54.0915 64.0135 52.9184 63.4992C51.7453 62.9758 50.8384 62.2629 50.1977 61.3605C49.5661 60.4582 49.2502 59.434 49.2502 58.2879H51.8626C51.8626 59.4791 52.3003 60.4221 53.1756 61.1169C54.0599 61.8027 55.2375 62.1456 56.7084 62.1456C58.08 62.1456 59.1313 61.8659 59.8622 61.3064C60.5931 60.7469 60.9586 59.9844 60.9586 59.0189C60.9586 58.0533 60.6202 57.3089 59.9434 56.7855C59.2666 56.2531 58.0394 55.7297 56.2617 55.2153Z" fill="black"/>
<path d="M48.7 24.3C47.5 26.5 44 29.7 39.5 32.7C35.7 35.2 32 37 29.5 37.6L30 34.8C30.1 34 29.9 33.1 29.3 32.5L29.2 32.4L28.7 32L25.6 29C24.1 27.5 24.9 24.9 27 24.6L32.1 23.9C32.9 23.8 33.7 23.3 34 22.5L36.3 17.9C37.2 16 40 16 40.9 17.9L43.2 22.5C43.3 22.7 43.4 22.9 43.6 23C44 23.5 44.5 23.8 45.2 23.9L48.7 24.3Z" fill="black" stroke="black" stroke-miterlimit="10"/>
<path d="M47.9 32.5C47.3 33.1 47 33.9 47.2 34.8L48.1 39.8C48.5 41.9 46.3 43.5 44.4 42.5L39.9 40.1C39.1 39.7 38.3 39.7 37.5 40.1L33 42.5C31.5 43.3 29.8 42.4 29.3 41C32.6 39.7 36.8 37.6 41 34.8C45.7 31.7 49.6 28.4 52.1 25.7C52.7 26.7 52.6 28 51.7 28.9L47.9 32.5Z" fill="black" stroke="black" stroke-miterlimit="10"/>
<path d="M51.9 25.7C49.4 28.4 45.5 31.7 40.8 34.8C36.6 37.6 32.4 39.7 29.1 41C25.3 42.4 22.6 42.7 21.8 41.5C20.8 39.9 23.6 36.1 28.6 31.9L29.1 32.3C26.8 34.5 25.7 36.4 26.2 37.3C26.6 37.9 27.8 38 29.4 37.5C31.9 36.8 35.6 35.1 39.4 32.6C43.9 29.6 47.4 26.4 48.6 24.2C49.1 23.4 49.2 22.7 48.9 22.2C48.3 21.3 46.2 21.6 43.3 22.8C43.2 22.6 43 22.5 42.9 22.3C48.7 19.4 53.3 18.3 54.4 19.9C55.3 21.1 54.2 23.2 51.9 25.7Z" stroke="black" stroke-miterlimit="10"/>
<path d="M29.9 34.8L29.4 37.6C27.7 38 26.6 38 26.2 37.4C25.6 36.5 26.8 34.6 29.1 32.4L29.2 32.5C29.8 33.1 30.1 33.9 29.9 34.8Z" stroke="black" stroke-miterlimit="10"/>
<path d="M48.7 24.3L45 23.8C44.4 23.7 43.8 23.4 43.4 22.9C46.3 21.8 48.4 21.5 49 22.3C49.3 22.8 49.2 23.5 48.7 24.3Z" stroke="black" stroke-miterlimit="10"/>
<path d="M29.9 34.8L29.4 37.6C27.7 38 26.6 38 26.2 37.4C25.6 36.5 26.8 34.6 29.1 32.4L29.2 32.5C29.8 33.1 30.1 33.9 29.9 34.8Z" stroke="black" stroke-miterlimit="10"/>
<path d="M48.7 24.3L45 23.8C44.4 23.7 43.8 23.4 43.4 22.9C46.3 21.8 48.4 21.5 49 22.3C49.3 22.8 49.2 23.5 48.7 24.3Z" stroke="black" stroke-miterlimit="10"/>
</svg>
