<svg viewBox="0 0 250 250" fill="none" xmlns="http://www.w3.org/2000/svg">
<g transform="matrix(17.857142857142858,0,0,17.857142857142858,0,0)"><path d="M1.1598 8.9986C1.2127 9.47865 1.59408 9.85971 2.07399 9.91386C3.18811 10.0396 4.35074 10.1963 5.54624 10.1963C6.74174 10.1963 7.90437 10.0396 9.01849 9.91386C9.4984 9.85971 9.87978 9.47865 9.93268 8.9986C10.055 7.8888 10.2026 6.73073 10.2026 5.53995C10.2026 4.34917 10.055 3.19109 9.93268 2.08129C9.87978 1.60124 9.4984 1.22019 9.01849 1.16603C7.90437 1.04032 6.74174 0.883629 5.54624 0.883629C4.35074 0.883629 3.18811 1.04032 2.07399 1.16603C1.59408 1.22019 1.2127 1.60124 1.1598 2.08129C1.03751 3.19109 0.889923 4.34917 0.889923 5.53995C0.889923 6.73073 1.03751 7.8888 1.1598 8.9986Z" fill="#D7E0FF" stroke="#508F16" stroke-width="1.5"></path><path d="M4.44447 11.9342C4.49755 12.4143 4.87903 12.7954 5.35891 12.8498C6.41546 12.9695 7.51731 13.1164 8.64995 13.1164C9.78259 13.1164 10.8844 12.9695 11.941 12.8498C12.4209 12.7954 12.8023 12.4143 12.8554 11.9342C12.9718 10.8818 13.1101 9.78436 13.1101 8.65624C13.1101 7.52812 12.9718 6.43065 12.8554 5.37824C12.8023 4.89821 12.4209 4.51705 11.941 4.46267C10.8844 4.34295 9.78259 4.19611 8.64995 4.19611C7.51731 4.19611 6.41546 4.34295 5.35891 4.46267C4.87903 4.51705 4.49755 4.89821 4.44447 5.37824C4.32811 6.43065 4.18982 7.52812 4.18982 8.65624C4.18982 9.78436 4.32811 10.8818 4.44447 11.9342Z" fill="white" stroke="#508F16" stroke-width="1.5"></path><path d="M6.9397 7.28233C6.76583 7.28233 6.62488 7.14138 6.62488 6.96751C6.62488 6.79364 6.76583 6.65269 6.9397 6.65269" stroke="#508F16" stroke-width="1.5" stroke-linecap="round" stroke-linejoin="round"></path><path d="M6.93976 6.6527C7.11363 6.6527 7.25458 6.79364 7.25458 6.96751C7.25458 7.14138 7.11363 7.28233 6.93976 7.28233" stroke="#508F16" stroke-width="1.5" stroke-linecap="round" stroke-linejoin="round"></path><path d="M6.9397 10.6598C6.76583 10.6598 6.62488 10.5189 6.62488 10.345C6.62488 10.1711 6.76583 10.0302 6.9397 10.0302" stroke="#508F16" stroke-width="1.5" stroke-linecap="round" stroke-linejoin="round"></path><path d="M6.93976 10.0302C7.11363 10.0302 7.25458 10.1712 7.25458 10.345C7.25458 10.5189 7.11363 10.6599 6.93976 10.6599" stroke="#508f16" stroke-width="1.5" stroke-linecap="round" stroke-linejoin="round"></path><path d="M10.36 7.28233C10.1861 7.28233 10.0452 7.14138 10.0452 6.96751C10.0452 6.79364 10.1861 6.65269 10.36 6.65269" stroke="#508F16" stroke-width="1.5" stroke-linecap="round" stroke-linejoin="round"></path><path d="M10.3601 6.6527C10.5339 6.6527 10.6749 6.79364 10.6749 6.96751C10.6749 7.14138 10.5339 7.28233 10.3601 7.28233" stroke="#508F16" stroke-width="1.5" stroke-linecap="round" stroke-linejoin="round"></path><path d="M10.36 10.6598C10.1861 10.6598 10.0452 10.5189 10.0452 10.345C10.0452 10.1711 10.1861 10.0302 10.36 10.0302" stroke="#508F16" stroke-width="1.5" stroke-linecap="round" stroke-linejoin="round"></path><path d="M10.3601 10.0302C10.5339 10.0302 10.6749 10.1712 10.6749 10.345C10.6749 10.5189 10.5339 10.6599 10.3601 10.6599" stroke="#508F16" stroke-width="1.5" stroke-linecap="round" stroke-linejoin="round"></path></g></svg>